<?xml version="1.0" encoding="UTF-8" standalone="no"?>
<svg
   xmlns:dc="http://purl.org/dc/elements/1.1/"
   xmlns:cc="http://creativecommons.org/ns#"
   xmlns:rdf="http://www.w3.org/1999/02/22-rdf-syntax-ns#"
   xmlns:svg="http://www.w3.org/2000/svg"
   xmlns="http://www.w3.org/2000/svg"
   xmlns:sodipodi="http://sodipodi.sourceforge.net/DTD/sodipodi-0.dtd"
   xmlns:inkscape="http://www.inkscape.org/namespaces/inkscape"
   width="408.80606"
   height="800"
   viewBox="0 0 408.80606 800.00001"
   version="1.1"
   id="svg889"
   sodipodi:docname="Logo Fédération Belge Football 2019.svg"
   inkscape:version="1.0beta1 (76ce730, 2019-10-19)">
  <metadata
     id="metadata893">
    <rdf:RDF>
      <cc:Work
         rdf:about="">
        <dc:format>image/svg+xml</dc:format>
        <dc:type
           rdf:resource="http://purl.org/dc/dcmitype/StillImage" />
      </cc:Work>
    </rdf:RDF>
  </metadata>
  <sodipodi:namedview
     pagecolor="#ffffff"
     bordercolor="#666666"
     inkscape:document-rotation="0"
     borderopacity="1"
     objecttolerance="10"
     gridtolerance="10"
     guidetolerance="10"
     inkscape:pageopacity="0"
     inkscape:pageshadow="2"
     inkscape:window-width="1440"
     inkscape:window-height="788"
     id="namedview891"
     showgrid="false"
     inkscape:zoom="0.35"
     inkscape:cx="39.220174"
     inkscape:cy="52.824607"
     inkscape:window-x="0"
     inkscape:window-y="23"
     inkscape:window-maximized="0"
     inkscape:current-layer="svg889" />
  <!-- Generator: Sketch 58 (84663) - https://sketch.com -->
  <title
     id="title833">Atom/Logo/Corporate/RBFA/L/Colour/Full</title>
  <desc
     id="desc835">Created with Sketch.</desc>
  <defs
     id="defs839" />
  <g
     style="stroke-width:0.142691"
     transform="matrix(7.0081695,0,0,7.0081695,0,-1.0599325)"
     id="g1375">
    <path
       inkscape:connector-curvature="0"
       fill="#A38E58"
       id="Fill-31"
       d="m 0.73127397,25.134121 v 50.021515 c 0,15.775909 12.76506303,28.611304 28.45452903,28.611304 15.690159,0 28.455222,-12.835395 28.455222,-28.611304 V 25.134121 Z"
       style="opacity:1;fill-rule:evenodd;stroke:none;stroke-width:0.142691;stop-opacity:1"
       sodipodi:nodetypes="cssscc" />
    <g
       style="stroke-width:0.142691"
       id="g1100">
      <polyline
         style="opacity:1;fill-rule:evenodd;stroke:none;stroke-width:0.142691;stop-opacity:1"
         id="Fill-1"
         fill="#A38E58"
         points="28.3616466 0.151242424 28.3616466 2.38572727 26.1394055 2.38572727 26.1394055 4.00060606 28.3616466 4.00130303 28.3616466 6.23509091 29.9676767 6.23509091 29.9676767 4.00130303 32.1899178 4.00130303 32.1899178 2.38572727 29.9676767 2.38572727 29.9676767 0.151242424 28.3616466 0.151242424" />
      <polygon
         style="opacity:1;fill-rule:evenodd;stroke:none;stroke-width:0.142691;stop-opacity:1"
         id="Fill-2"
         fill="#A38E58"
         points="19.180866,21.900879 39.147764,21.900879 39.147764,20.286 19.180866,20.286 " />
      <polygon
         style="opacity:1;fill-rule:evenodd;stroke:none;stroke-width:0.142691;stop-opacity:1"
         id="Fill-3"
         fill="#A38E58"
         points="19.180866,18.653697 39.147764,18.653697 39.147764,17.038818 19.180866,17.038818 " />
      <polygon
         style="opacity:1;fill-rule:evenodd;stroke:none;stroke-width:0.142691;stop-opacity:1"
         id="Fill-4"
         fill="#A38E58"
         points="28.361647,15.417667 29.967677,15.417667 29.967677,7.8499697 28.361647,7.8499697 " />
      <path
         style="opacity:1;fill-rule:evenodd;stroke:none;stroke-width:0.142691;stop-opacity:1"
         d="m 20.052849,14.867758 c -0.601655,-1.134667 -1.223411,-2.307667 -1.223411,-3.215819 0,-1.176484 0.942685,-2.1097269 2.193129,-2.1703632 0.312611,-0.014636 0.576008,0.027879 0.808214,0.1024545 0.190616,-0.528303 0.451241,-1.0085152 0.770783,-1.4315757 -0.451934,-0.1881819 -0.993285,-0.3150304 -1.65663,-0.2836667 -2.087076,0.1003636 -3.721526,1.7626363 -3.721526,3.7831511 0,1.242697 0.643937,2.522334 1.301737,3.766425 h 1.816748 c -0.09565,-0.184697 -0.192696,-0.368697 -0.289044,-0.550606"
         id="Fill-5"
         fill="#A38E58"
         inkscape:connector-curvature="0" />
      <path
         style="opacity:1;fill-rule:evenodd;stroke:none;stroke-width:0.142691;stop-opacity:1"
         d="m 25.802534,15.418364 c -0.05268,-0.131728 -0.106745,-0.263455 -0.163583,-0.402849 -0.435299,-1.064273 -0.978036,-2.389909 -0.978036,-3.286909 0,-1.343061 0.743751,-2.0239999 1.380063,-2.1989393 0.259238,-0.071091 0.493523,-0.054364 0.713252,0.013939 V 7.8841212 c -0.347268,-0.043212 -0.724342,-0.025788 -1.13746,0.087818 -1.556123,0.4279394 -2.561885,1.9027273 -2.561885,3.7566668 0,1.149303 0.520556,2.484 1.012693,3.689758 h 1.734956"
         id="Fill-6"
         fill="#A38E58"
         inkscape:connector-curvature="0" />
      <path
         style="opacity:1;fill-rule:evenodd;stroke:none;stroke-width:0.142691;stop-opacity:1"
         d="m 37.387162,7.8687879 c -0.663346,-0.031364 -1.204003,0.095485 -1.655937,0.2836667 0.318849,0.4230605 0.580167,0.9032727 0.770783,1.4315757 0.232206,-0.074576 0.49491,-0.1170909 0.808214,-0.1024545 1.250444,0.060636 2.193129,0.9938792 2.193129,2.1703632 0,0.908152 -0.62245,2.081152 -1.223411,3.215819 -0.09704,0.181909 -0.193389,0.365909 -0.289737,0.550606 h 1.817441 c 0.6578,-1.244091 1.301737,-2.523728 1.301737,-3.766425 0,-2.0205148 -1.63445,-3.6827875 -3.722219,-3.7831511"
         id="Fill-7"
         fill="#A38E58"
         inkscape:connector-curvature="0" />
      <path
         style="opacity:1;fill-rule:evenodd;stroke:none;stroke-width:0.142691;stop-opacity:1"
         d="m 31.577866,7.8841212 v 1.6594849 c 0.219728,-0.068303 0.454014,-0.08503 0.713252,-0.013939 0.637005,0.1749394 1.380063,0.8558779 1.380063,2.1989389 0,0.897 -0.542044,2.222636 -0.978036,3.286909 -0.05684,0.139394 -0.110211,0.271121 -0.163583,0.402849 h 1.735649 c 0.491444,-1.205758 1.012,-2.540455 1.012,-3.689758 0,-1.8539389 -1.005069,-3.3287268 -2.561885,-3.7566662 -0.412425,-0.1136061 -0.789499,-0.1310303 -1.13746,-0.087818"
         id="Fill-8"
         fill="#A38E58"
         inkscape:connector-curvature="0" />
    </g>
    <g
       style="stroke-width:0.142691"
       id="g1319">
      <path
         style="opacity:1;fill-rule:evenodd;stroke:none;stroke-width:0.142691;stop-opacity:1"
         d="M 29.970449,48.180121 V 102.13045 C 44.411551,101.71018 56.032915,89.775273 56.032915,75.155636 v -6.97e-4 c 0,-14.620333 -11.621364,-26.555242 -26.062466,-26.974818"
         id="Fill-27"
         fill="#000105"
         inkscape:connector-curvature="0" />
      <path
         style="opacity:1;fill-rule:evenodd;stroke:none;stroke-width:0.142691;stop-opacity:1"
         d="m 19.19057,26.750394 h -7.56366 v 68.799273 c 2.231252,1.944545 4.782046,3.525969 7.56366,4.652273 V 26.750394"
         id="Fill-28"
         fill="#F9D238"
         inkscape:connector-curvature="0" />
      <path
         style="opacity:1;fill-rule:evenodd;stroke:none;stroke-width:0.142691;stop-opacity:1"
         d="m 20.798679,100.79367 c 2.39137,0.79315 4.930381,1.25524 7.563661,1.33539 V 26.750394 h -7.563661 v 74.043276"
         id="Fill-29"
         fill="#DA3130"
         inkscape:connector-curvature="0" />
      <path
         style="opacity:1;fill-rule:evenodd;stroke:none;stroke-width:0.142691;stop-opacity:1"
         d="m 2.3386904,75.155636 c 0,7.341879 2.9341069,14.004909 7.6808026,18.876728 V 26.750394 H 2.3386904 v 48.405242"
         id="Fill-30"
         fill="#000105"
         inkscape:connector-curvature="0" />
    </g>
    <g
       style="stroke-width:0.142691"
       id="g1090">
      <path
         inkscape:connector-curvature="0"
         id="Fill-9"
         d="m 53.102967,103.49512 c -2.667244,0 -5.229822,1.95012 -5.229822,1.95012 h 10.459644 c 0,0 -2.563271,-1.95012 -5.229822,-1.95012"
         style="opacity:1;fill:#a38e58;fill-opacity:1;fill-rule:evenodd;stroke:none;stroke-width:0.142691;stop-opacity:1" />
      <path
         inkscape:connector-curvature="0"
         id="Fill-10"
         transform="translate(29.805479,105.93939)"
         d="m 17.332233,0.66490909 c -2.667244,0 -5.229822,1.95081821 -5.229822,1.95081821 h 10.459644 c 0,0 -2.563271,-1.95081821 -5.229822,-1.95081821"
         style="opacity:1;fill:#a38e58;fill-opacity:1;fill-rule:evenodd;stroke:none;stroke-width:0.142691;stop-opacity:1" />
      <path
         inkscape:connector-curvature="0"
         id="Fill-12"
         transform="translate(29.805479,105.93939)"
         d="M 13.391671,4.2717273 C 11.005153,3.0757273 7.8464657,3.6709394 7.8464657,3.6709394 l 9.3603073,4.6933939 c 0,0 -1.428584,-2.8959091 -3.815102,-4.092606"
         style="opacity:1;fill:#a38e58;fill-opacity:1;fill-rule:evenodd;stroke:none;stroke-width:0.142691;stop-opacity:1" />
      <path
         inkscape:connector-curvature="0"
         id="Fill-15"
         d="m 55.283619,99.624848 c 1.69614,-2.069303 1.829918,-5.298363 1.829918,-5.298363 L 50.46137,102.442 c 0,0 3.125416,-0.74785 4.822249,-2.817152"
         style="opacity:1;fill:#a38e58;fill-opacity:1;fill-rule:evenodd;stroke:none;stroke-width:0.142691;stop-opacity:1" />
      <path
         inkscape:connector-curvature="0"
         id="Fill-16"
         d="m 48.857419,102.45385 c 1.472252,-2.23588 1.269159,-5.461456 1.269159,-5.461456 l -5.771866,8.769966 c 0,0 3.031148,-1.07194 4.502707,-3.30851"
         style="opacity:1;fill:#a38e58;fill-opacity:1;fill-rule:evenodd;stroke:none;stroke-width:0.142691;stop-opacity:1" />
      <path
         inkscape:connector-curvature="0"
         id="Fill-17"
         transform="translate(0,103.15152)"
         d="m 39.784077,4.8787879 c 2.387211,-1.196697 3.815101,-4.09190911 3.815101,-4.09190911 L 34.238871,5.4795758 c 0,0 3.158688,0.5952121 5.545206,-0.6007879"
         style="opacity:1;fill:#a38e58;fill-opacity:1;fill-rule:evenodd;stroke:none;stroke-width:0.142691;stop-opacity:1" />
      <path
         inkscape:connector-curvature="0"
         id="Fill-19"
         transform="translate(0,103.15152)"
         d="m 5.2298219,0.34360606 c 2.6665507,0 5.2291291,1.95012124 5.2291291,1.95012124 H 0 c 0,0 2.5625781,-1.95012124 5.2298219,-1.95012124"
         style="opacity:1;fill:#a38e58;fill-opacity:1;fill-rule:evenodd;stroke:none;stroke-width:0.142691;stop-opacity:1" />
      <path
         inkscape:connector-curvature="0"
         id="Fill-20"
         transform="translate(0,103.15152)"
         d="m 11.195077,3.4527879 c 2.66655,0 5.229822,1.9508182 5.229822,1.9508182 H 5.9652548 c 0,0 2.5632712,-1.9508182 5.2298222,-1.9508182"
         style="opacity:1;fill:#a38e58;fill-opacity:1;fill-rule:evenodd;stroke:none;stroke-width:0.142691;stop-opacity:1" />
      <path
         inkscape:connector-curvature="0"
         id="Fill-21"
         transform="translate(0,103.15152)"
         d="m 15.136332,7.0596061 c 2.386517,-1.196 5.545205,-0.6007879 5.545205,-0.6007879 L 11.32123,11.152212 c 0,0 1.427891,-2.895909 3.815102,-4.0926059"
         style="opacity:1;fill:#a38e58;fill-opacity:1;fill-rule:evenodd;stroke:none;stroke-width:0.142691;stop-opacity:1" />
      <path
         inkscape:connector-curvature="0"
         id="Fill-22"
         transform="translate(0,103.15152)"
         d="m 22.888529,7.0596061 c 2.386518,-1.196 5.545205,-0.6007879 5.545205,-0.6007879 L 19.07412,11.152212 c 0,0 1.427891,-2.895909 3.814409,-4.0926059"
         style="opacity:1;fill:#a38e58;fill-opacity:1;fill-rule:evenodd;stroke:none;stroke-width:0.142691;stop-opacity:1" />
      <path
         inkscape:connector-curvature="0"
         id="Fill-24"
         d="M 3.0477836,99.624848 C 1.3516438,97.556242 1.219252,94.326485 1.219252,94.326485 L 7.8714192,102.442 c 0,0 -3.1268028,-0.74785 -4.8236356,-2.817152"
         style="opacity:1;fill:#a38e58;fill-opacity:1;fill-rule:evenodd;stroke:none;stroke-width:0.142691;stop-opacity:1" />
      <path
         inkscape:connector-curvature="0"
         id="Fill-25"
         d="M 9.4739836,102.45385 C 8.0024247,100.21797 8.2055178,96.992394 8.2055178,96.992394 l 5.7725592,8.769966 c 0,0 -3.032534,-1.07194 -4.5040934,-3.30851"
         style="opacity:1;fill:#a38e58;fill-opacity:1;fill-rule:evenodd;stroke:none;stroke-width:0.142691;stop-opacity:1" />
      <path
         inkscape:connector-curvature="0"
         id="Fill-26"
         d="m 18.548019,108.031 c -2.386518,-1.1967 -3.814408,-4.09261 -3.814408,-4.09261 l 9.360307,4.6927 c 0,0 -3.159381,0.59521 -5.545899,-0.60009"
         style="opacity:1;fill:#a38e58;fill-opacity:1;fill-rule:evenodd;stroke:none;stroke-width:0.142691;stop-opacity:1" />
      <path
         inkscape:connector-curvature="0"
         id="Fill-13"
         transform="translate(29.805479,105.93939)"
         d="M 5.6387808,4.2710303 C 3.2515699,3.0757273 0.09288219,3.6709394 0.09288219,3.6709394 L 9.453189,8.3643333 c 0,0 -1.4285835,-2.8959091 -3.8144082,-4.093303"
         style="opacity:1;fill:#a38e58;fill-opacity:1;fill-rule:evenodd;stroke:none;stroke-width:0.142691;stop-opacity:1" />
    </g>
    <g
       id="g1305"
       style="fill:#000000;stroke-width:0.142691"
       transform="translate(11.078289)">
      <g
         style="fill:#000000;stroke-width:0.224739"
         transform="matrix(0.6349158,0,0,0.6349158,9.8675382,19.791752)"
         id="g1234">
        <polyline
           points="31.3622959 39.8401818 32.5184712 39.8401818 32.5184712 34.7697273 31.3505123 34.8889091 31.3505123 33.8741212 32.7998904 33.4001818 34.2707562 33.4001818 34.2707562 39.8401818 35.3825699 39.8401818 35.3825699 40.9511515 31.3622959 40.9511515 31.3622959 39.8401818"
           fill="#000105"
           id="Fill-32"
           style="opacity:1;fill:#000000;fill-rule:evenodd;stroke:none;stroke-width:0.224739;stop-opacity:1" />
        <path
           inkscape:connector-curvature="0"
           fill="#000105"
           id="Fill-33"
           d="m 36.314164,34.403121 c 0.0603,-0.07945 0.156652,-0.185394 0.286965,-0.317818 0.131005,-0.133818 0.3036,-0.262758 0.51709,-0.388909 0.212797,-0.125455 0.470649,-0.233485 0.774943,-0.324091 0.302907,-0.08921 0.652948,-0.133818 1.04943,-0.133818 0.4048,0 0.758307,0.046 1.061213,0.139394 0.302907,0.09409 0.561453,0.202818 0.774943,0.329667 0.21349,0.126151 0.384005,0.253 0.511545,0.382636 0.126847,0.129636 0.220422,0.233485 0.280726,0.312939 v 1.899243 c -0.0603,0.07876 -0.16289,0.190272 -0.309145,0.333848 -0.146255,0.144273 -0.338951,0.284364 -0.578781,0.42097 0.27726,0.144272 0.503921,0.309454 0.679981,0.495545 0.17606,0.187485 0.304293,0.360334 0.387471,0.518546 v 1.596757 c -0.06724,0.143576 -0.178139,0.300394 -0.331326,0.469061 -0.153879,0.168667 -0.345882,0.324788 -0.578087,0.469061 -0.232899,0.144272 -0.505307,0.264151 -0.819998,0.361727 -0.31469,0.09758 -0.673742,0.145666 -1.078542,0.145666 -0.396482,0 -0.752762,-0.04809 -1.066759,-0.145666 -0.31469,-0.09758 -0.587792,-0.217455 -0.819997,-0.361727 -0.231513,-0.144273 -0.424902,-0.300394 -0.578088,-0.469061 -0.153879,-0.168667 -0.264091,-0.325485 -0.331326,-0.469061 v -1.596757 c 0.08248,-0.151243 0.209331,-0.319909 0.381926,-0.507394 0.171901,-0.186788 0.396482,-0.356152 0.673742,-0.506697 -0.23983,-0.129637 -0.432526,-0.264152 -0.57878,-0.40494 -0.145562,-0.14009 -0.248842,-0.257181 -0.309146,-0.349878 z m 1.595633,4.897606 c 0.0603,0.137303 0.182992,0.259273 0.370143,0.367303 0.18715,0.107334 0.408266,0.161697 0.662652,0.161697 0.262011,0 0.487285,-0.05436 0.673742,-0.161697 0.187151,-0.10803 0.311225,-0.23 0.370836,-0.367303 v -1.165333 c -0.05961,-0.136606 -0.183685,-0.258576 -0.370836,-0.366606 -0.186457,-0.107334 -0.411731,-0.161 -0.673742,-0.161 -0.254386,0 -0.475502,0.05367 -0.662652,0.161 -0.187151,0.10803 -0.309839,0.23 -0.370143,0.366606 z m 0.03327,-3.233242 c 0.06793,0.09967 0.18715,0.202121 0.359051,0.305273 0.172595,0.103848 0.386086,0.155424 0.640472,0.155424 0.262011,0 0.478967,-0.05158 0.651561,-0.155424 0.171902,-0.103152 0.291817,-0.205606 0.359053,-0.305273 v -1.094939 c -0.06724,-0.100364 -0.187151,-0.200031 -0.359053,-0.300395 -0.172594,-0.100363 -0.38955,-0.150545 -0.651561,-0.150545 -0.254386,0 -0.467877,0.05018 -0.640472,0.150545 -0.171901,0.100364 -0.291123,0.200031 -0.359051,0.300395 z"
           style="opacity:1;fill:#000000;fill-rule:evenodd;stroke:none;stroke-width:0.224739;stop-opacity:1" />
        <path
           inkscape:connector-curvature="0"
           fill="#000105"
           id="Fill-34"
           d="m 48.185063,39.66803 c -0.07417,0.150546 -0.187151,0.310849 -0.336178,0.479515 -0.150414,0.169364 -0.34103,0.325485 -0.573236,0.469061 -0.232205,0.144273 -0.505307,0.263455 -0.819997,0.356849 -0.31469,0.09339 -0.669584,0.14009 -1.066759,0.14009 -0.396482,0 -0.747216,-0.0467 -1.050123,-0.14009 -0.302907,-0.09339 -0.564918,-0.205607 -0.786033,-0.335243 C 43.331622,40.509273 43.154175,40.374061 43.019011,40.23397 42.88454,40.093879 42.78334,39.974 42.716104,39.872939 v -0.938121 h 1.628211 v 0.365909 c 0.0603,0.137303 0.183685,0.258576 0.370836,0.367303 0.18715,0.107334 0.411731,0.161697 0.673742,0.161697 0.254386,0 0.475502,-0.05436 0.661959,-0.161697 0.187844,-0.108727 0.311225,-0.23 0.371529,-0.367303 V 37.812 c -0.194775,0.144273 -0.421436,0.257879 -0.679981,0.340121 -0.257852,0.08294 -0.555907,0.124061 -0.892778,0.124061 -0.284885,0 -0.542737,-0.03415 -0.774249,-0.102455 -0.232899,-0.0683 -0.438765,-0.156121 -0.618291,-0.264848 -0.179526,-0.107333 -0.330633,-0.23 -0.454707,-0.365909 -0.123381,-0.136606 -0.219035,-0.277394 -0.286271,-0.421667 v -2.642909 c 0.05961,-0.09339 0.157345,-0.209788 0.291816,-0.350576 0.135165,-0.140091 0.312612,-0.276697 0.533727,-0.409818 0.220421,-0.133121 0.484512,-0.24603 0.791578,-0.340121 0.307065,-0.09339 0.659186,-0.139394 1.055668,-0.139394 0.397175,0 0.752069,0.04739 1.066759,0.144969 0.31469,0.09758 0.587792,0.218152 0.819997,0.361728 0.232206,0.144272 0.424208,0.298303 0.578088,0.464182 0.153879,0.165182 0.26409,0.319909 0.331326,0.464182 z m -2.773989,-2.556485 c 0.194775,0 0.374994,-0.03067 0.539271,-0.092 0.16497,-0.06133 0.321622,-0.142181 0.472036,-0.243242 v -1.725697 c -0.0603,-0.137303 -0.183685,-0.259273 -0.371529,-0.367303 -0.186457,-0.107333 -0.407573,-0.161 -0.661959,-0.161 -0.262011,0 -0.486592,0.05367 -0.673742,0.161 -0.187151,0.10803 -0.310532,0.23 -0.370836,0.367303 v 1.53194 c 0.0603,0.136606 0.185071,0.258575 0.376381,0.366605 0.190616,0.108031 0.420742,0.162394 0.690378,0.162394 z"
           style="opacity:1;fill:#000000;fill-rule:evenodd;stroke:none;stroke-width:0.224739;stop-opacity:1" />
        <path
           inkscape:connector-curvature="0"
           fill="#000105"
           id="Fill-35"
           d="m 49.20746,38.891606 h 1.628211 v 0.409121 c 0.06724,0.137303 0.192696,0.258576 0.376381,0.367303 0.183685,0.107334 0.406186,0.161697 0.668197,0.161697 0.253694,0 0.474808,-0.05227 0.662652,-0.156818 0.186458,-0.103848 0.310532,-0.227909 0.370143,-0.372182 v -1.477575 c -0.05961,-0.136607 -0.183685,-0.257879 -0.370143,-0.361728 -0.187844,-0.103848 -0.408958,-0.156121 -0.662652,-0.156121 -0.247454,0 -0.4554,0.04391 -0.623142,0.134515 -0.169129,0.08991 -0.282806,0.174243 -0.34311,0.254394 h -1.628211 v -4.29403 h 5.222198 v 1.359091 h -3.593987 v 1.78006 c 0.187151,-0.144272 0.4048,-0.257182 0.651562,-0.340121 0.246761,-0.08224 0.539271,-0.124061 0.876142,-0.124061 0.277261,0 0.528874,0.03415 0.757614,0.102455 0.22874,0.0683 0.43114,0.156121 0.6072,0.264848 0.175367,0.107334 0.325781,0.232091 0.448469,0.372182 0.124074,0.140091 0.219728,0.278091 0.286271,0.415394 v 2.642909 c -0.05961,0.100364 -0.156652,0.22094 -0.291123,0.361031 -0.135165,0.140788 -0.313305,0.275303 -0.533727,0.404242 -0.221115,0.129636 -0.483125,0.241849 -0.786032,0.335243 -0.3036,0.09339 -0.653642,0.14009 -1.050124,0.14009 -0.397175,0 -0.746523,-0.0453 -1.050123,-0.134515 -0.3036,-0.08991 -0.563532,-0.200727 -0.781181,-0.329666 -0.216263,-0.129637 -0.394403,-0.265546 -0.533033,-0.409819 -0.13863,-0.143575 -0.241216,-0.266242 -0.308452,-0.366606 v -0.981333"
           style="opacity:1;fill:#000000;fill-rule:evenodd;stroke:none;stroke-width:0.224739;stop-opacity:1" />
      </g>
      <g
         style="fill:#000000;stroke-width:0.142691"
         transform="translate(0.16779085)"
         id="g1278">
        <path
           id="path897"
           style="opacity:1;fill:#000000;fill-rule:evenodd;stroke:none;stroke-width:0.142691;stop-opacity:1"
           d="M 22.957132,40.890365 21.744,45.247299 v 0.642807 h 0.936117 l 0.333766,-1.335624 h 1.460927 l 0.325898,1.335624 h 1.049621 v -0.642807 l -1.212568,-4.356934 z m 0.779911,1.000173 h 0.134291 l 0.439964,1.79975 h -1.028267 z"
           inkscape:connector-curvature="0" />
        <path
           style="opacity:1;fill:#000000;fill-rule:evenodd;stroke:none;stroke-width:0.142691;stop-opacity:1"
           d="m 18.724369,45.890365 h 1.156135 v -2.08572 h 1.666412 v -0.864003 h -1.666412 v -1.185624 h 1.751425 v -0.864405 h -2.90756 z"
           id="Fill-37"
           inkscape:connector-curvature="0" />
      </g>
      <g
         style="fill:#000000;stroke-width:0.517185"
         transform="matrix(0.27589851,0,0,0.27589851,-24.158246,27.553903)"
         id="g1262">
        <path
           inkscape:connector-curvature="0"
           id="path1137"
           style="opacity:1;fill:#000000;fill-rule:evenodd;stroke:none;stroke-width:0.517185;stop-opacity:1"
           d="m 222.64453,25.462891 -4.20508,15.144531 v 2.234375 h 3.2461 l 1.15625,-4.642578 h 5.0664 l 1.13282,4.642578 h 3.64062 v -2.234375 l -4.20703,-15.144531 z m 2.53516,3.476562 h 0.46679 l 1.5254,6.253906 h -3.56836 z" />
        <path
           inkscape:connector-curvature="0"
           style="opacity:1;fill:#000000;fill-rule:evenodd;stroke:none;stroke-width:0.517185;stop-opacity:1"
           d="m 171.38558,42.841333 h 10.50257 v -3.003939 h -6.49324 v -4.369303 h 5.87865 v -3.00394 h -5.87865 V 28.46703 h 6.32129 v -3.003242 h -10.33062 z"
           id="path1129" />
        <path
           inkscape:connector-curvature="0"
           id="path1123"
           style="opacity:1;fill:#000000;fill-rule:evenodd;stroke:none;stroke-width:0.517185;stop-opacity:1"
           d="m 156.03711,25.462891 v 17.378906 h 7.33008 c 0.63945,0 1.22471,-0.08817 1.75781,-0.261719 0.53242,-0.173546 1.01269,-0.400064 1.43945,-0.68164 0.42607,-0.281575 0.79529,-0.600881 1.10743,-0.957032 0.31144,-0.355455 0.5649,-0.706899 0.76171,-1.054687 v -4.220703 c -0.22996,-0.380545 -0.53654,-0.726683 -0.92187,-1.041016 -0.38532,-0.314334 -0.74916,-0.564185 -1.09375,-0.746094 0.36047,-0.198636 0.72157,-0.470572 1.08203,-0.818359 0.36116,-0.347788 0.62276,-0.661784 0.78711,-0.943359 v -3.699219 c -0.19681,-0.347091 -0.44685,-0.698536 -0.75,-1.054688 -0.30384,-0.356151 -0.66012,-0.675455 -1.07031,-0.957031 -0.41019,-0.281576 -0.87409,-0.508095 -1.39063,-0.681641 -0.51653,-0.174242 -1.08541,-0.261718 -1.70898,-0.261718 z m 4.00977,2.929687 h 2.43554 c 0.50824,0 0.94158,0.108856 1.30274,0.324219 0.36046,0.214667 0.63227,0.504624 0.8125,0.869141 v 1.810546 c -0.21338,0.331757 -0.49331,0.60495 -0.83789,0.820313 -0.34459,0.214667 -0.73636,0.322265 -1.17969,0.322265 h -2.5332 z m 0,6.951172 h 2.5332 c 0.47578,0 0.90912,0.103547 1.30273,0.310547 0.39362,0.206303 0.68041,0.47558 0.86133,0.806641 v 2.259765 c -0.18092,0.347788 -0.44596,0.631742 -0.79883,0.855469 -0.35287,0.223727 -0.84002,0.335937 -1.46289,0.335937 h -2.43554 z" />
        <path
           inkscape:connector-curvature="0"
           style="opacity:1;fill:#000000;fill-rule:evenodd;stroke:none;stroke-width:0.517185;stop-opacity:1"
           d="m 235.18962,42.841333 h 3.73863 V 32.315 h 0.44265 l 4.94433,10.526333 h 4.52587 V 25.463788 h -3.73864 v 10.550727 h -0.4675 l -4.91948,-10.550727 h -4.52586 z"
           id="path1141" />
        <path
           inkscape:connector-curvature="0"
           style="opacity:1;fill:#000000;fill-rule:evenodd;stroke:none;stroke-width:0.517185;stop-opacity:1"
           d="m 211.92085,42.841333 h 4.01002 V 25.463091 h -4.01002 z"
           id="path1135" />
        <path
           inkscape:connector-curvature="0"
           style="opacity:1;fill:#000000;fill-rule:evenodd;stroke:none;stroke-width:0.517185;stop-opacity:1"
           d="m 202.7469,36.063303 h 2.45973 v 2.681242 c -0.18092,0.347788 -0.47993,0.662819 -0.89771,0.944394 -0.41847,0.280879 -0.97989,0.421667 -1.68494,0.421667 -0.68917,0 -1.25473,-0.149151 -1.69737,-0.446758 -0.44334,-0.298302 -0.74649,-0.637727 -0.91015,-1.017575 v -8.987424 c 0.18024,-0.397273 0.47993,-0.744364 0.89772,-1.042667 0.41778,-0.298303 0.96331,-0.446758 1.63591,-0.446758 0.6719,0 1.22089,0.148455 1.64765,0.446758 0.42676,0.298303 0.72163,0.645394 0.88598,1.042667 v 1.78703 h 3.86155 v -2.854788 c -0.18092,-0.347091 -0.4309,-0.723455 -0.75063,-1.129091 -0.31972,-0.405636 -0.7375,-0.782 -1.25403,-1.129788 -0.51654,-0.347091 -1.13596,-0.641212 -1.85689,-0.88097 -0.72232,-0.240454 -1.56617,-0.360333 -2.53363,-0.360333 -0.96815,0 -1.82029,0.124061 -2.5578,0.372879 -0.73819,0.247424 -1.37419,0.557576 -1.90661,0.930454 -0.5331,0.372182 -0.96815,0.782 -1.30375,1.228758 -0.3363,0.447454 -0.59457,0.868424 -0.7748,1.265697 V 39.41503 c 0.18023,0.397273 0.4385,0.819637 0.7748,1.266394 0.3356,0.446758 0.77065,0.856576 1.30375,1.228758 0.53242,0.372182 1.16842,0.68303 1.90661,0.931151 0.73751,0.248122 1.58965,0.372182 2.5578,0.372182 0.96746,0 1.81131,-0.120576 2.53363,-0.359636 0.72093,-0.239758 1.34035,-0.538061 1.85689,-0.894212 0.51653,-0.355455 0.93431,-0.736 1.25403,-1.141637 0.31973,-0.404939 0.56971,-0.773636 0.75063,-1.104697 v -6.553606 h -6.19837 z"
           id="path1133" />
        <path
           inkscape:connector-curvature="0"
           style="opacity:1;fill:#000000;fill-rule:evenodd;stroke:none;stroke-width:0.517185;stop-opacity:1"
           d="m 184.71664,42.841333 h 9.34728 v -3.003939 h -5.33726 V 25.463788 h -4.01002 z"
           id="path1131" />
      </g>
      <g
         style="fill:#000000;stroke-width:0.517185"
         transform="matrix(0.27589851,0,0,0.27589851,-3.100508,20.987911)"
         id="g1253">
        <path
           inkscape:connector-curvature="0"
           id="path1117"
           style="opacity:1;fill:#000000;fill-rule:evenodd;stroke:none;stroke-width:0.517185;stop-opacity:1"
           d="m 126.96484,25.462891 -4.20703,15.144531 v 2.234375 h 3.2461 l 1.15625,-4.642578 h 5.0664 l 1.13086,4.642578 H 137 v -2.234375 l -4.20703,-15.144531 z m 2.53321,3.476562 h 0.46679 l 1.52539,6.253906 h -3.5664 z" />
        <path
           inkscape:connector-curvature="0"
           id="path1113"
           style="opacity:1;fill:#000000;fill-rule:evenodd;stroke:none;stroke-width:0.517185;stop-opacity:1"
           d="m 101.43164,25.091797 c -0.96815,0 -1.821086,0.122276 -2.558593,0.371094 -0.738198,0.247424 -1.373146,0.558762 -1.90625,0.93164 -0.532414,0.372182 -0.966437,0.781758 -1.302735,1.228516 -0.335607,0.447454 -0.595157,0.868352 -0.77539,1.265625 v 10.52539 c 0.180233,0.397273 0.439782,0.820822 0.77539,1.267579 0.336298,0.446758 0.770321,0.856333 1.302735,1.228515 0.533104,0.372182 1.168052,0.68352 1.90625,0.931641 0.737507,0.248122 1.590443,0.371094 2.558593,0.371094 0.96677,0 1.82039,-0.122972 2.55859,-0.371094 0.73751,-0.248121 1.37314,-0.559459 1.90625,-0.931641 0.53241,-0.372182 0.96645,-0.781757 1.30274,-1.228515 0.3363,-0.446757 0.59516,-0.870305 0.77539,-1.267579 v -10.52539 c -0.18023,-0.397273 -0.43909,-0.818171 -0.77539,-1.265625 -0.33629,-0.446758 -0.77033,-0.856334 -1.30274,-1.228516 -0.53311,-0.372878 -1.16874,-0.684216 -1.90625,-0.93164 -0.7382,-0.248818 -1.59182,-0.371094 -2.55859,-0.371094 z m 0,3.078125 c 0.67191,0 1.21894,0.147009 1.63672,0.445312 0.41848,0.298303 0.71625,0.645696 0.89648,1.042969 v 8.988281 c -0.18023,0.379848 -0.478,0.719277 -0.89648,1.017578 -0.41778,0.297607 -0.96481,0.447266 -1.63672,0.447266 -0.67328,0 -1.21698,-0.149659 -1.634765,-0.447266 -0.418473,-0.298301 -0.718205,-0.63773 -0.898437,-1.017578 v -8.988281 c 0.180233,-0.397273 0.479964,-0.744666 0.898437,-1.042969 0.417785,-0.298303 0.961485,-0.445312 1.634765,-0.445312 z" />
        <path
           inkscape:connector-curvature="0"
           id="Fill-38"
           style="opacity:1;fill:#000000;fill-rule:evenodd;stroke:none;stroke-width:0.517185;stop-opacity:1"
           d="m 79.712891,25.462891 v 17.378906 h 4.007812 v -6.380859 h 1.673828 l 3.8125,6.380859 h 3.123047 v -2.234375 l -2.976562,-4.59375 c 0.623566,-0.248818 1.165785,-0.58685 1.625,-1.017578 0.458525,-0.43003 0.851676,-0.92778 1.179687,-1.490235 v -5.08789 C 91.633386,27.474272 90.917266,26.745392 90.007812,26.232422 89.096977,25.72015 88.092806,25.462891 86.994141,25.462891 Z m 4.007812,3.003906 h 2.386719 c 0.507554,0 0.959902,0.104244 1.353516,0.310547 0.392922,0.207 0.687958,0.500313 0.884765,0.880859 v 2.806641 c -0.196807,0.380546 -0.48772,0.674556 -0.873047,0.880859 -0.385326,0.207697 -0.841107,0.308594 -1.365234,0.308594 h -2.386719 z" />
        <path
           inkscape:connector-curvature="0"
           style="opacity:1;fill:#000000;fill-rule:evenodd;stroke:none;stroke-width:0.517185;stop-opacity:1"
           d="m 139.50842,42.841333 h 9.34659 v -3.003939 h -5.33795 V 25.463788 h -4.00864 z"
           id="path1121" />
        <path
           inkscape:connector-curvature="0"
           style="opacity:1;fill:#000000;fill-rule:evenodd;stroke:none;stroke-width:0.517185;stop-opacity:1"
           d="m 114.17284,42.841333 h 4.00933 v -6.826818 l 4.57489,-8.316939 v -2.233788 h -3.2953 l -2.78016,5.957 h -0.46681 l -2.75529,-5.957 h -3.61572 v 2.233788 l 4.32906,7.919666 z"
           id="path1115" />
      </g>
      <circle
         r="0.60000002"
         cy="43.468349"
         cx="28.000385"
         id="path1280"
         style="fill:#000000;fill-opacity:1;stroke:none;stroke-width:1.42691;stroke-linecap:round;stroke-linejoin:round;stroke-opacity:1" />
    </g>
  </g>
</svg>
